<?xml version="1.0" encoding="utf-8"?>
<!-- Generator: Adobe Illustrator 21.0.0, SVG Export Plug-In . SVG Version: 6.00 Build 0)  -->
<svg version="1.1" id="Camada_1" xmlns="http://www.w3.org/2000/svg" xmlns:xlink="http://www.w3.org/1999/xlink" x="0px" y="0px"
	 viewBox="0 0 1500 1500" style="enable-background:new 0 0 1500 1500;" xml:space="preserve">
<style type="text/css">
	.st0{fill:#99D0B5;}
	.st1{fill:#FFFFFF;}
	.st2{fill:#429B6E;}
	.st3{fill:none;}
	.st4{fill:#429B6E;stroke:#429B6E;stroke-width:2;stroke-miterlimit:10;}
	.st5{font-family:'Montserrat-Medium';}
	.st6{font-size:64.8927px;}
</style>
<g>
	<g>
		<g>
			<g>
				<path d="M1011.2,1160.3c-40,22.9-82.9,40.5-127.5,52.1c-11.5,3-23.2,5.6-34.9,7.9c-5.3,1-10.7,2.3-16,2.8
					c-5.9,0.5-12.7-3.4-18.2-5.5c-23.2-8.8-46.4-18-69.7-26.7c-47.2-17.7-95.3-32.3-144.2-44.5c-47.9-12-96.6-21.3-146-24.8
					c-7-0.5-14.1-0.3-21-1.1c-6.2-0.7-12.2-7.5-16.9-11.4c-10-8.3-19.7-16.9-29-25.9c-18.7-18-36.1-37.4-52-57.9
					c-0.4,1.7-0.9,3.3-1.3,5c45.6-8.4,93.5-7.5,139.5-2.9c45.7,4.6,90.9,14,135.3,25.5c43.5,11.3,86.5,24.3,128.7,40
					c41.3,15.3,82.1,32.1,123.8,46.3c23.6,8,47.5,15.2,71.8,20.9c12.7,3,26.2,4.1,39.2,5c13.3,1,26.5,1.2,39.8,0.8
					c3.9-0.1,3.9-6.1,0-6c-23.9,0.6-48.3-0.4-71.9-4.5c-22.1-3.8-44.1-11.1-65.4-18c-42.3-13.8-83.4-30.6-125-46.3
					c-42.2-15.9-85-29.5-128.5-41.1c-44.1-11.8-88.8-21.6-134.1-27.1c-51-6.2-104.2-7.7-154.9,1.6c-2.5,0.5-2.6,3.4-1.3,5
					c14.5,18.6,30.1,36.3,46.9,52.9c8.4,8.3,17.1,16.3,26,24c4.2,3.7,8.5,7.3,12.9,10.8c3.5,2.8,8.1,8.1,12.5,9.1
					c2.6,0.6,6,0.2,8.6,0.3c2.9,0.1,5.7,0.3,8.6,0.4c7,0.4,14,0.9,20.9,1.6c12.7,1.2,25.4,2.7,38,4.5c25,3.7,49.7,8.6,74.3,14.4
					c50.3,11.8,100.2,26.1,148.7,43.8c23.9,8.7,47.7,18.1,71.5,27.2c5.4,2.1,10.7,4.1,16.1,6.1c5.6,2.1,10.9,5.2,16.9,4.3
					c11.8-1.8,23.6-4.1,35.3-6.7c51-11.6,100-30.8,145.4-56.8C1017.6,1163.6,1014.6,1158.4,1011.2,1160.3z"/>
			</g>
		</g>
		<g>
			<path class="st0" d="M1202.8,977.3c-7.8,12.9-16.2,25.5-25.1,37.7c-43.8,60.2-100.1,110.8-164.9,147.9
				c-55.4,31.8-117,53.7-182.7,63.6c-25.7,3.9-52.1,5.9-79,5.9c-120.8,0-232.1-40.7-321.1-109.1c-36-27.7-68.4-60-96.3-95.9
				c-23-29.6-42.8-61.8-59.1-95.9c-7.6-15.8-14.4-32.1-20.4-48.7"/>
			<g>
				<path class="st1" d="M1198.9,975c-39.5,64.9-92.6,121.1-155.6,163.5c-64,43.2-137.2,71.8-213.5,83.5
					c-76.7,11.7-156.1,6-230.4-16.5c-69.6-21.1-134.5-56.9-189.5-104.4c-60.3-52.1-108.4-117.6-139.9-190.7
					c-4.1-9.5-7.8-19.1-11.4-28.8c-2-5.4-10.7-3.1-8.7,2.4c27.9,76.9,73.1,147,132,203.8c53.6,51.6,117.8,91.8,187.7,117.3
					c73.2,26.7,152.4,36.7,230,29.6c79.6-7.3,157.1-32.6,225.5-73.9c64.9-39.1,120.9-92,164-154.3c6.1-8.8,11.9-17.8,17.5-26.9
					C1209.7,974.6,1201.9,970.1,1198.9,975L1198.9,975z"/>
			</g>
		</g>
		<g>
			<path class="st0" d="M1249.5,878.3c-17.2,49.3-41.5,95.3-71.8,136.7c-74.4,30.8-154.4,46.1-239.5,32.3
				c-44.2-10-85.5-24.7-126.3-40.2c-48.9-18.5-96.9-38.3-147.5-52.8c-80.3-23.5-157.9-41.9-238.9-43.6c-25.9-0.6-52.2,0.6-79,3.8
				c-23.7,3.9-48.2,8.8-71.8,17c-13.4-27.9-24.4-57.2-32.7-87.6c32.8-17.7,69.6-25.4,104.5-31.3c12-1.5,23.9-2.5,35.7-3.1
				c96.8-5.3,187.8,15.3,282.2,42.9c82.5,23.6,158,61.3,242.1,84.9c10.4,3,20.9,5.7,31.7,8.1
				C1051.3,963.8,1155.4,930.7,1249.5,878.3z"/>
			<g>
				<path class="st1" d="M1245.1,877.2c-17,48.4-41.1,94.1-71.3,135.6c0.9-0.7,1.8-1.4,2.7-2.1c-53.3,21.9-109.9,36.1-167.7,37.2
					c-14.8,0.3-29.6-0.3-44.3-1.7c-15.6-1.5-30.6-4.3-45.7-8.3c-29.3-7.7-58-17.4-86.4-27.9c-58-21.4-114.9-45.1-174.4-62.2
					c-59.2-17.1-119.4-31.8-180.8-38.3c-68-7.1-138.6-4.7-203.7,17.6c1.7,0.7,3.4,1.4,5.1,2.1c-13.3-27.8-24-56.8-32.2-86.5
					c-0.7,1.7-1.4,3.4-2.1,5.1c29.8-15.8,62.7-23.7,95.7-29.5c35-6.2,71.8-6.1,107.3-4.1c71.3,4.1,141,20.9,209.4,40.7
					c66.1,19.1,129.2,46.6,194,69.4c32.7,11.5,66.6,23.3,101.2,27.6c32.6,4.1,65.6,4.1,98.2,0.2c63.3-7.6,123.9-29.3,180.4-58.4
					c7.2-3.7,14.3-7.5,21.4-11.5c5.1-2.8,0.5-10.6-4.5-7.8c-56,31.1-116.1,55.6-179.6,66.1c-32.6,5.4-65.8,6.9-98.7,4.1
					c-17.5-1.4-34.2-4.4-51.1-8.9c-17-4.5-33.9-9.7-50.7-15.3c-65-21.8-127.7-50.3-193.5-70c-67.8-20.2-136.9-37.7-207.5-43.9
					c-67.8-6-140-2.8-203.8,22.9c-7.7,3.1-15.2,6.6-22.6,10.5c-1.7,0.9-2.6,3.2-2.1,5.1c8.4,30.5,19.5,60.1,33.1,88.6
					c0.8,1.7,3.3,2.7,5.1,2.1c69.2-23.7,144.5-24.7,216.5-15.6c36.2,4.6,71.9,12.1,107.3,21c36,9.1,71.9,19.1,107,31.2
					c68.6,23.6,134.9,53.9,205,72.9c17.5,4.7,34.7,8.1,52.8,9.8c17.2,1.6,34.4,2.1,51.6,1.5c33.9-1.2,67.6-6.8,100.3-15.8
					c16.4-4.5,32.5-9.8,48.3-15.9c3.9-1.5,7.8-3,11.6-4.6c4.2-1.7,5.7-3.8,8.3-7.4c4.8-6.7,9.5-13.5,13.9-20.5
					c18.3-28.2,33.7-58.2,46.3-89.4c3.1-7.8,6.1-15.6,8.9-23.5C1255.7,874.1,1247,871.7,1245.1,877.2z"/>
			</g>
		</g>
		<g>
			<path class="st0" d="M1012.8,1162.9c-55.4,31.8-117,53.7-182.7,63.6c-55.3-20.5-108.8-43.4-165.7-59.7
				c-78.8-23-155-41.2-234.4-43.5c-36-27.7-68.4-60-96.3-95.9c4.3-0.8,8.5-1.5,12.7-2.2c110.4-13.3,211.9,8.9,317.9,39.8
				c92.7,26.6,176.6,70.8,273.7,93C963.5,1162.1,988.3,1163.6,1012.8,1162.9z"/>
			<g>
				<path class="st1" d="M1010.5,1159c-39.9,22.8-82.6,40.4-127.1,52c-11.5,3-23.2,5.6-34.9,7.9c-5.2,1-10.7,2.4-16,2.8
					c-5.5,0.4-12.2-3.6-17.4-5.5c-23.2-8.8-46.4-18-69.7-26.7c-47.2-17.7-95.3-32.3-144.2-44.5c-48-12.1-96.9-21.3-146.4-24.8
					c-6.9-0.5-14.1-0.2-21-1.1c-5.7-0.8-11.4-7.3-15.9-11c-10-8.3-19.7-16.9-29-25.9c-18.7-18-36.1-37.4-52-57.9
					c-0.7,2.5-1.3,5-2,7.5c45.5-8.3,93.3-7.4,139.1-2.8c45.6,4.6,90.6,14,134.9,25.4c43.5,11.3,86.5,24.3,128.7,40
					c41.3,15.3,82.1,32.1,123.8,46.3c23.6,8,47.5,15.2,71.8,20.9c25.6,6,53.3,6.6,79.4,5.9c5.8-0.2,5.8-9.2,0-9
					c-23.8,0.6-48-0.4-71.5-4.4c-22.1-3.8-44.1-11.1-65.4-18c-42.3-13.8-83.4-30.6-125-46.3c-42.2-15.9-85-29.5-128.5-41.1
					c-44.2-11.8-89-21.6-134.5-27.1c-51.1-6.2-104.5-7.7-155.3,1.6c-3.7,0.7-3.8,5.1-2,7.5c14.5,18.6,30.1,36.3,46.9,52.9
					c8.4,8.3,17.1,16.3,26,24c4.2,3.7,8.5,7.3,12.9,10.8c3.7,3,8.8,8.8,13.6,9.5c5.5,0.9,11.6,0.4,17.2,0.8c7,0.4,14,0.9,20.9,1.6
					c12.6,1.1,25.1,2.7,37.6,4.5c25,3.7,49.7,8.6,74.3,14.4c50.3,11.8,100.2,26.1,148.7,43.8c23.9,8.7,47.7,18.1,71.5,27.2
					c5.4,2.1,10.7,4.1,16.1,6.1c5.9,2.2,11.3,5.3,17.7,4.3c11.8-1.8,23.6-4.1,35.3-6.7c51.1-11.6,100.3-30.9,145.7-56.9
					C1020.1,1163.9,1015.5,1156.1,1010.5,1159z"/>
			</g>
		</g>
		<g>
			<path class="st2" d="M810.5,702.9c3.6-9.9,2.8-35.5-0.4-45.3c-1.8-5.4-6-18.2-17.3-28.5c-10.9-10-32.3-20.9-46.4-13.3
				c-10.3,5.6-16.3,18.4-15.6,44.2c0.9,32.5-1.5,65.7-4.9,93.5c-0.2,1.5-0.4,2.9-0.5,4.3c-2.6,21.1-5.7,38.8-8.1,50.3
				c-16.7,1.3-33.7,1.7-51,1.2c-6.2-0.2-12.5-0.4-18.6-0.8c4.7-13.5,10.2-37.1,9.1-70.8c-0.4-14.1-2.1-29.9-5.5-47.5
				c-1.4-7.1-3.2-13.8-5.4-20.2c-8.1-23.4-20.5-39.1-27.2-47.4c-5-6.2-8.8-11-14.8-16.3c-18.4-16.5-38.4-21.5-46.1-23.9
				c-21.6-6.7-44-22.9-61.5-43.6c-17.6-20.9-30.1-46.6-31.5-71.7c-0.5-9,0.2-22.2,6.3-38.4c1.7,38.8,21.9,72.9,51.8,93.6
				c9.1,6.2,19.2,10.7,29.6,14.8c10.2,4,26.4,5.7,26.4,5.7s0.1,0,0.3,0c3.8,0.4,7.7,0.6,11.6,0.6c1.8,0,56.1,1.4,84.3,2.7
				c16.8,0.8,32.4,1.6,43.3,2.6c32.2,2.9,53.5,14.9,60.1,19.2c0.2,0.1,0.4,0.3,0.6,0.4c1.1,0.8,1.7,1.2,1.7,1.2l0,0
				c25.5,19.1,45,49.7,41.9,83.8C821.4,671.2,819.5,680.2,810.5,702.9z"/>
			<g>
				<path class="st1" d="M814.9,704.1c3-8.9,2.8-19.3,2.4-28.6c-0.4-8.4-1.6-16.5-4.7-24.4c-8-20.5-26-37.8-48.1-41.7
					c-19.6-3.5-32.9,9.2-36.5,27.7c-2.5,12.7-1.3,25.7-1.4,38.5c0,15.4-0.7,30.7-1.9,46c-2.2,28.6-5.8,57.2-11.6,85.3
					c1.4-1.1,2.9-2.2,4.3-3.3c-23.2,1.7-46.4,1.7-69.6,0.4c1.4,1.9,2.9,3.8,4.3,5.7c8.9-26,10.6-54.4,8.8-81.7
					c-2.2-33.3-9.1-66.2-28-94.2c-7.4-10.9-15.8-22-25.6-30.8c-11-9.8-23.9-17-37.9-21.8c-4.8-1.7-9.7-2.9-14.4-4.6
					c-7.6-2.8-14.7-6.6-21.5-10.9c-14.5-9.3-27.3-21.5-37.8-35.1c-11.6-15-20.6-32.4-24.5-51.1c-3.5-16.8-1.4-33.6,4.5-49.7
					c-2.9-0.4-5.9-0.8-8.8-1.2c1.9,38.3,21.1,73.8,52.3,96.2c15.6,11.2,34.5,18.8,53.5,21.5c9.6,1.4,19.2,1.5,28.9,1.7
					c33.7,0.9,67.4,1.8,101.1,3.9c19.5,1.2,38.6,3.6,56.8,11c5.3,2.2,10.5,4.7,15.3,7.7c0.8,0.5,1.6,1,2.4,1.5c0.5,0.3,1,0.7,1.5,1
					c-1.7-1.1-0.1-0.1,0.2,0.2c4.1,3.1,8,6.5,11.6,10.1c15.7,15.6,27.2,36.3,28.3,58.8c1,20.6-5,40.5-12.5,59.4
					C804.1,707.1,812.8,709.4,814.9,704.1c6.7-16.9,11.3-33.4,12.7-51.5c1.5-19.6-4.3-39.2-14.8-55.6c-8.5-13.3-20-25.8-33.6-34
					c-12.6-7.6-26.9-12.8-41.3-15.8c-20.8-4.4-42.5-4.6-63.6-5.5c-16.1-0.7-32.3-1.2-48.4-1.7c-24.9-0.7-51.7,1.2-75.2-8.4
					c-21.4-8.7-39.9-21.9-53.4-40.8c-12.9-18.2-20.3-39.6-21.5-61.9c-0.3-5.2-7.1-5.9-8.8-1.2c-10.9,29.7-6.9,60.1,8,87.7
					c15.4,28.6,40.9,54.2,70.8,67.4c10.9,4.8,22.7,7.1,33.5,12.4c15.1,7.4,26.5,18.4,36.9,31.4c8.1,10.1,15.2,21,20.7,32.8
					c7.7,16.6,11.2,34.6,13.5,52.6c3.9,31.7,3.6,65.2-6.9,95.6c-1,2.9,1.6,5.5,4.3,5.7c23.2,1.3,46.4,1.3,69.6-0.4
					c1.9-0.1,3.9-1.3,4.3-3.3c9.8-47.5,14.7-96.9,13.7-145.5c-0.3-14.4-1.6-41.1,17-45.6c9.7-2.4,20.5,2.5,28.6,7.5
					c9,5.6,16,13.3,20.7,22.8c3.8,7.7,5.7,15.6,6.3,24.2c0.7,9.3,1.2,19.9-1.9,28.9C804.3,707.2,813,709.6,814.9,704.1z"/>
			</g>
		</g>
		<g>
			<path class="st2" d="M975.8,760.2c0,67.4-26,129.2-69.4,177.2c-84.1-23.6-159.6-61.2-242.1-84.9
				c-94.4-27.6-185.4-48.2-282.2-42.9c-3.1-16-4.8-32.5-4.8-49.4c0-18.7,2-36.9,5.8-54.5c66.1,57.7,159.7,96.3,265,102.9
				c6.2,0.4,12.4,0.6,18.6,0.8c17.3,0.4,34.3,0,51-1.2c100.3-7.4,189.6-44.4,252.6-100C974,725,975.8,742.4,975.8,760.2z"/>
			<g>
				<path class="st1" d="M971.3,760.2c-0.2,64.5-25.1,126.2-68,174c1.5-0.4,2.9-0.8,4.4-1.2C840,914,775.8,885,709.5,862.1
					c-33.9-11.7-68.5-21.4-103.2-30.3c-34.6-8.8-69.5-16.3-104.9-21.2c-39.5-5.5-79.4-7.7-119.2-5.6c1.4,1.1,2.9,2.2,4.3,3.3
					c-6.4-33.5-6.1-68.2,1.1-101.6c-2.5,0.7-5,1.3-7.5,2c60.9,53,138,85.5,217.4,98.5c87.9,14.4,180.7,6.1,263.5-27.4
					c41-16.6,79.5-39.4,112.8-68.6c-2.5-0.7-5-1.3-7.5-2C969.6,726.1,971.3,743.1,971.3,760.2c0,5.8,9,5.8,9,0
					c-0.1-17.9-1.9-35.7-5.5-53.2c-0.7-3.5-5.2-4.1-7.5-2c-60,52.6-136.9,83.4-215.3,94.9c-86,12.6-176.1,2.6-256.5-30.6
					c-39.6-16.4-76.8-38.7-109.2-66.8c-2.4-2.1-6.8-1.5-7.5,2c-7.5,35-7.8,71.1-1.1,106.3c0.4,1.8,2.5,3.4,4.3,3.3
					c71.2-3.7,141.7,6.7,210.7,23.7c34.6,8.5,69.1,18,102.9,29.2c32.8,10.9,65,23.6,97.3,36c36.9,14.2,74.1,28,112.2,38.8
					c1.5,0.4,3.3,0,4.4-1.2c44.6-49.6,70.5-113.5,70.7-180.4C980.3,754.4,971.3,754.4,971.3,760.2z"/>
			</g>
		</g>
		<g>
			<ellipse class="st2" cx="666" cy="481.3" rx="44.7" ry="44.8"/>
			<g>
				<path class="st1" d="M706.2,481.3c-0.3,16.9-10.7,32.4-26.8,38c-15.9,5.6-33.8,0.6-44.5-12.4c-10.8-13-12.1-32-3.4-46.4
					c8.5-14.3,25.7-22.2,42.2-18.9C692.6,445.4,705.9,462.1,706.2,481.3c0.1,5.8,9.1,5.8,9,0c-0.3-20.6-12.8-39-32.1-46.3
					c-19.2-7.3-41.9-1.1-54.9,14.8c-13.1,16-15.1,39-4.4,56.8c10.6,17.7,31.4,26.9,51.7,23.2c23.2-4.3,39.5-25.3,39.8-48.4
					C715.3,475.5,706.3,475.5,706.2,481.3z"/>
			</g>
		</g>
		<g>
			<path class="st0" d="M377.7,429.8c54.5,8.6,108.9,17.9,163.2,27.4c27.2,4.8,54.3,9.5,81.5,14.5c27.1,4.9,54.3,9.8,81.4,14.9
				c54.2,10,108.4,20.3,162.6,30.8c27.1,5.3,54.2,10.5,81.2,15.9l40.6,8.1l40.5,8.3l-1.5,4.6c-16.8-8.2-33.5-16.6-50.3-24.9
				l-25.1-12.6l-25-12.7l25.7,11.3l25.6,11.4c17.1,7.7,34.1,15.3,51.2,23l17.2,7.9l-18.7-3.2l-40.8-7l-40.7-7.2
				c-27.2-4.7-54.3-9.7-81.4-14.6c-54.3-9.9-108.5-20-162.7-30.4c-27.1-5.1-54.2-10.4-81.2-15.7c-27.1-5.2-54.1-10.7-81.2-16
				C485.7,452.6,431.6,441.6,377.7,429.8z"/>
		</g>
		<path id="SVGID_x5F_1_x5F_" class="st3" d="M1024.4,1157.8c-11.7,7-23.7,13.6-36,19.7c-43.7,21.9-91.2,38-141.7,47.3
			c-286.1,52.9-560.4-132-618.9-416.9c-59.7-290.5,129-573.4,419.4-630.4c60.7-11.9,121.1-13,179.1-4.6
			c52.1,7.5,102.2,22.7,149,44.6c68,31.7,128.9,77.6,178.2,134.6c42.2,48.7,75.9,105.5,98.4,168.6c8.9,24.7,16,50.5,21.2,77.1
			c23.5,119.7,5,237.8-45.3,339.2c-20.4,41.1-45.9,79.4-76,114c-24.8,28.5-52.7,54.4-83.2,77.2
			C1054.4,1138.7,1039.7,1148.6,1024.4,1157.8"/>
		<text>		<textPath  xlink:href="#SVGID_x5F_1_x5F_" startOffset="23.0769%">
<tspan  class="st4 st5" style="font-size:43.89px;">E DISSE-LHES: VINDE APÓS MIM, E EU VOS FAREI PESCADORES DE HOMENS MATEUS 4.19</tspan>		</textPath>
</text>
	</g>
	<g>
		<text transform="matrix(1 0 0 1 356.6889 1332.6206)" class="st4 st5 st6">IPB JARDIM ARPOADOR</text>
	</g>
</g>
</svg>
